<?xml version="1.0" encoding="UTF-8" standalone="no"?>
<!-- Created with Inkscape (http://www.inkscape.org/) -->

<svg
   width="311.31039mm"
   height="231.24001mm"
   viewBox="0 0 311.31039 231.24"
   version="1.1"
   id="svg5"
   xml:space="preserve"
   inkscape:version="1.2.2 (732a01da63, 2022-12-09)"
   sodipodi:docname="3.svg"
   xmlns:inkscape="http://www.inkscape.org/namespaces/inkscape"
   xmlns:sodipodi="http://sodipodi.sourceforge.net/DTD/sodipodi-0.dtd"
   xmlns="http://www.w3.org/2000/svg"
   xmlns:svg="http://www.w3.org/2000/svg"><sodipodi:namedview
     id="namedview7"
     pagecolor="#ffffff"
     bordercolor="#000000"
     borderopacity="0.25"
     inkscape:showpageshadow="2"
     inkscape:pageopacity="0.0"
     inkscape:pagecheckerboard="0"
     inkscape:deskcolor="#d1d1d1"
     inkscape:document-units="mm"
     showgrid="false"
     inkscape:zoom="1.2623761"
     inkscape:cx="527.97262"
     inkscape:cy="449.153"
     inkscape:window-width="2560"
     inkscape:window-height="1417"
     inkscape:window-x="1912"
     inkscape:window-y="-8"
     inkscape:window-maximized="1"
     inkscape:current-layer="g236" /><defs
     id="defs2" /><g
     inkscape:label="Layer 1"
     inkscape:groupmode="layer"
     id="layer1"
     transform="translate(11.660254,6.9301254)"><g
       id="g236"
       transform="matrix(0.26458333,0,0,0.26458333,-176.40369,5.9068722)"
       style="display:inline"><path
         d="M 1706.619,163.93401 C 1573.0765,-21.896128 1290.9743,-97.276886 1013.5358,-16.090018 866.86243,26.831052 725.44225,112.82978 655.35784,279.35105 530.07443,577.02582 793.12277,672.09589 965.12777,702.39587 c 83.17233,14.65143 161.50653,39.26261 233.08903,72.77077 128.7834,60.28419 356.7388,113.70237 528.6323,-137.40927 124.5886,-182.00604 68.7224,-350.04213 -20.2301,-473.82336 z"
         fill="#f2f2f2"
         id="path134"
         style="fill:#d4d4ff;fill-opacity:1" /><path
         d="m 932.38432,200.69967 a 34.38541,34.38541 0 0 0 -2.24759,-8.60455 3.89486,3.89486 0 0 0 -1.9801,-2.43877 4.08011,4.08011 0 0 0 -1.96474,-0.022 l -10.08728,1.5435 a 3.86686,3.86686 0 0 0 -2.30153,0.89427 c -1.31382,1.38169 -0.0201,3.60656 -0.0603,5.51275 -0.0452,2.14349 -1.94974,3.88337 -4.015,4.459 a 15.17731,15.17731 0 0 1 -6.37968,-0.0791 l -14.105,-2.19194 a 23.25611,23.25611 0 0 0 10.67057,-7.12071 c 1.85618,-2.1989 2.84369,-6.30419 0.1611,-7.34549 a 6.58539,6.58539 0 0 0 -2.4499,-0.19671 c -6.39055,0.0497 -11.41938,-5.286 -17.402,-7.53322 a 19.24089,19.24089 0 0 0 -21.65464,6.45538 l 7.5139,0.36227 a 3.33516,3.33516 0 0 1 2.00147,0.53379 c 1.6467,1.35295 -0.40057,3.95167 -0.16859,6.07024 0.3014,2.75248 3.95606,3.34017 6.711,3.6185 2.75494,0.27833 6.2499,2.51667 4.92472,4.94791 -13.84664,4.7694 -27.9371,-9.32314 -42.479,-7.58839 -3.68047,0.43906 -7.15584,1.88493 -10.74918,2.79409 -21.95074,5.55382 -44.64391,-9.26441 -67.06781,-6.12617 a 85.16281,85.16281 0 0 0 -14.64041,3.86122 c -3.05193,1.00208 -6.23529,2.085 -8.4528,4.409 -2.21751,2.324 -3.06148,6.29847 -0.96073,8.72854 a 49.12567,49.12567 0 0 1 -17.21577,-1.63646 9.645,9.645 0 0 1 4.95868,8.50029 102.14535,102.14535 0 0 0 -26.16726,7.97875 44.07342,44.07342 0 0 0 5.416,7.21479 l -11.44534,7.353 c 3.86678,0.97425 5.866,6.24693 3.61733,9.54 4.00941,-1.78367 6.49425,-6.39789 10.78165,-7.33339 2.80882,-0.61288 5.66686,0.53616 8.33145,1.61556 2.66459,1.0794 5.59324,2.12606 8.35166,1.31595 2.75842,-0.81011 4.793,-4.38683 3.04022,-6.66564 a 142.71908,142.71908 0 0 1 36.25271,-5.66392 4.54655,4.54655 0 0 1 2.7456,0.52105 c 1.59825,1.10883 1.17774,3.50381 1.09165,5.44712 -0.0861,1.94331 1.42851,4.49732 3.16535,3.62139 -2.0434,1.77191 -0.29656,5.10765 1.66387,6.97094 1.96043,1.86329 4.32331,4.43434 3.12309,6.85811 -0.31325,0.63259 -0.84455,1.13873 -1.14595,1.77705 -0.88965,1.88416 0.52289,4.08076 2.189,5.332 1.66611,1.25124 3.70692,2.12572 4.86428,3.85837 1.15736,1.73265 0.63178,4.76548 -1.43777,5.00743 l -5.88236,-7.46869 a 15.31355,15.31355 0 0 0 -3.97364,7.53022 c 6.23775,5.09923 7.176,15.47823 1.9538,21.61341 -2.66868,3.13523 -6.46374,5.04033 -9.776,7.48581 -3.31226,2.44548 -6.37716,5.92783 -6.36883,10.045 0.0144,7.1131 -0.56681,13.72146 2.09864,20.31629 a 312.966,312.966 0 0 0 16.99045,35.44742 c 1.68084,3.00616 3.85316,6.30106 7.2582,6.81867 q -6.45495,-15.71421 -11.62147,-31.91738 c 2.24339,0.009 4.83588,0.1869 6.151,2.0044 1.089,1.505 0.85507,3.55121 1.19345,5.37785 a 16.65908,16.65908 0 0 0 2.12446,4.99431 l 20.5495,36.60482 c 1.70352,3.03448 3.65756,6.29169 6.91332,7.52057 2.08158,0.78568 4.48987,0.63767 6.4058,1.76882 1.50176,0.88663 2.51323,2.46048 4.04419,3.29566 4.32885,2.36148 10.34856,-2.16748 14.394,0.652 1.15671,0.80618 1.89258,2.08691 2.9584,3.00991 3.7363,3.23562 9.8654,1.07107 14.17856,3.48476 2.77976,1.55559 4.22039,4.66667 5.70306,7.486 3.71393,7.0621 9.72327,13.98083 17.68257,14.54317 2.50017,0.17664 5.054,-0.2974 7.4979,0.25869 2.4439,0.55609 4.84966,2.68894 4.45736,5.16446 -0.67255,4.244 1.42431,8.89112 0.86116,13.151 -1.02579,7.7595 -12.03211,11.16939 -12.97751,18.93909 -0.207,1.70118 0.117,3.45712 -0.28806,5.12229 -0.49646,2.04085 -2.02916,3.70248 -2.57379,5.731 -1.03211,3.84421 1.72207,7.67 4.74769,10.25626 3.02562,2.58626 6.63464,4.8164 8.28878,8.43676 1.74839,3.82665 0.88959,8.2885 1.4582,12.457 1.24134,9.10039 9.10157,15.84677 17.19082,20.19673 2.46463,1.32534 5.11094,2.60844 6.70615,4.90762 2.08209,3.00091 1.87467,6.957 2.56992,10.54272 1.70271,8.78155 9.09527,16.01718 9.30517,24.95982 0.14919,6.35613 -3.384,12.12238 -5.49458,18.11972 a 42.25685,42.25685 0 0 0 3.45065,35.0456 c 1.57886,2.666 3.46722,5.17956 4.58411,8.06975 1.9931,5.15754 1.34639,11.02046 3.18408,16.2354 2.42959,6.8946 9.10562,12.58934 8.46666,19.87152 3.0309,6.29406 9.72369,9.38665 16.45363,11.26 l 12.06158,3.3575 c 2.30949,0.64288 4.72281,1.29086 7.07448,0.82537 2.35167,-0.46549 4.596,-2.41823 4.53529,-4.81476 -5.91483,-1.33393 -12.01936,-2.75242 -16.89516,-6.35673 -4.8758,-3.60431 -8.21581,-10.02271 -6.36585,-15.797 0.85781,-2.67751 2.68278,-5.76942 0.94774,-7.98179 -0.99343,-1.26672 -2.81,-1.59767 -3.93051,-2.75344 -1.74775,-1.80265 -1.14729,-4.831 0.10918,-7.0048 1.25647,-2.1738 3.07257,-4.11641 3.57937,-6.57554 a 6.8609,6.8609 0 0 0 -3.21584,-7.13792 17.05434,17.05434 0 0 0 5.97,-3.83059 c 1.57,-1.79291 2.29521,-4.557 1.06019,-6.59515 3.66753,0.46513 7.99742,0.69293 10.40495,-2.1126 1.92251,-2.24033 1.79046,-5.5897 1.03082,-8.44244 -0.75964,-2.85274 -2.04361,-5.62357 -2.08361,-8.57544 a 156.26659,156.26659 0 0 0 25.353,-0.85968 16.43929,16.43929 0 0 0 -7.70814,-9.65354 c 3.81059,-0.64475 7.28211,-5.20677 8.486,-8.87922 1.20389,-3.67245 0.89686,-7.67268 0.15275,-11.46513 a 6.1519,6.1519 0 0 1 -0.114,-3.0037 c 0.42911,-1.36751 1.77248,-2.202 3.01534,-2.91574 l 18.91443,-10.86271 a 11.01742,11.01742 0 0 0 3.0246,-2.2329 c 1.9816,-2.3277 1.6881,-5.84149 0.6734,-8.72517 -1.0147,-2.88368 -2.64,-5.59533 -3.0308,-8.62723 -1.169,-9.06757 8.5376,-15.57351 11.8134,-24.10911 1.2856,-3.34968 1.5476,-6.99072 1.7964,-10.57 0.2672,-3.84428 0.287,-8.30958 -2.6647,-10.78692 -2.8295,-2.37472 -7.2505,-1.845 -10.2113,-4.05388 -2.7144,-2.02517 -3.651,-5.95833 -6.6164,-7.59409 -2.693,-1.4855 -6.06959,-0.54073 -9.06477,-1.23939 -5.27364,-1.23013 -8.59236,-7.30815 -13.97824,-7.87093 -3.03881,-0.31753 -6.47807,1.16807 -8.96869,-0.60169 -2.19461,-1.55942 -2.28256,-4.69377 -2.70031,-7.35339 A 20.53588,20.53588 0 0 0 954.1266,434.76611 c -3.13319,-0.50246 -6.54363,-0.31164 -9.20909,-2.03347 -2.699,-1.74352 -3.93652,-5.00776 -6.0566,-7.42227 -3.41691,-3.89143 -8.79842,-5.274 -13.83964,-6.45913 l -20.50551,-4.82056 c -3.64012,-0.85575 -8.33221,-1.30951 -10.2856,1.87908 a 14.73808,14.73808 0 0 0 -1.2167,3.82666 11.85046,11.85046 0 0 1 -11.14436,8.38821 13.17908,13.17908 0 0 0 -7.77154,-6.01327 c -2.07929,-0.57947 -4.30492,-0.64392 -6.288,-1.49645 a 8.83267,8.83267 0 0 1 -3.83257,-12.25263 10.99469,10.99469 0 0 0 -1.87879,-13.22509 c -3.48719,-3.13068 -8.53151,-3.88711 -13.20736,-3.57386 -1.22464,-2.67214 0.823,-5.687 3.02956,-7.62888 2.20656,-1.94188 4.886,-3.851 5.36649,-6.75084 0.75588,-4.56146 -5.06429,-8.026 -9.48338,-6.66591 -4.41909,1.36009 -7.23961,5.65241 -9.10407,9.88349 -1.06976,2.42763 -1.97922,4.984 -3.66664,7.031 -1.68742,2.047 -4.40481,3.51266 -6.97507,2.85573 -3.63876,-0.93 -5.0441,-5.25313 -5.84943,-8.9215 -1.0805,-4.92177 -2.16729,-9.91182 -1.94089,-14.94571 0.2264,-5.03389 1.92341,-10.20254 5.63535,-13.6103 6.04878,-5.55311 15.328,-5.00874 23.49132,-4.12292 -1.92865,-2.173 -1.452,-5.83518 0.61156,-7.88051 a 8.95973,8.95973 0 0 1 8.12084,-1.99506 11.19111,11.19111 0 0 1 6.29121,3.76152 c 2.31979,2.82828 2.97946,6.647 4.73289,9.85732 1.75343,3.21032 5.69616,5.94849 8.92328,4.22617 2.78738,-1.48763 3.22979,-5.35275 2.53606,-8.43517 -0.69373,-3.08242 -2.16714,-6.07975 -1.91585,-9.22926 0.4795,-6.00963 6.70912,-9.627 12.20639,-12.102 5.49727,-2.475 11.79199,-5.80355 12.66291,-11.76903 a 10.72992,10.72992 0 0 1 0.65234,-3.42029 6.70927,6.70927 0 0 1 2.46136,-2.31466 c 16.04394,-10.60287 32.35471,-21.33517 50.69218,-27.12878 0.954,-0.30143 1.066,0.0336 2.03827,-0.20258 1.36074,-0.78645 0.45911,-2.96205 -0.84552,-3.83847 -1.30463,-0.87642 -3.04843,-1.54853 -3.37942,-3.08495 -0.24331,-1.12941 0.42213,-2.23839 0.595,-3.38071 0.42476,-2.807 -2.93323,-5.39866 -5.541,-4.27645 -1.473,-1.95077 1.44164,-4.21747 3.79839,-4.86633 a 103.15015,103.15015 0 0 1 21.67038,-3.54 3.90329,3.90329 0 0 1 2.46588,0.41943 c 1.23093,0.85266 1.07366,2.80835 0.20129,4.0254 -0.87237,1.21705 -2.22935,1.98119 -3.31646,3.011 a 9.05261,9.05261 0 0 0 -2.34812,9.105 c 3.826,1.94617 7.98552,3.94962 12.223,3.264 4.23748,-0.68562 7.99857,-5.44675 6.00679,-9.24924 -1.8548,-3.541 -7.42626,-4.33966 -8.38436,-8.22052 -1.12177,-4.5438 5.31041,-8.585 3.86151,-13.03528 -0.63466,-1.94937 -2.57739,-3.09662 -4.06811,-4.504 a 12.22124,12.22124 0 0 1 -2.67445,-13.55158 15.41851,15.41851 0 0 1 -13.52264,-4.2317 c -3.23448,-3.26425 -5.8149,-8.41353 -10.40792,-8.26747 -4.21485,0.134 -7.84523,5.0513 -11.78634,3.55111 -0.96958,-0.36907 -1.99186,-1.12025 -2.93131,-0.68012 a 2.42225,2.42225 0 0 0 -1.09342,1.815 c -1.00154,4.78839 0.72138,10.24417 -1.88839,14.38191 -2.83993,4.50267 -9.4088,5.12692 -12.85167,9.18721 -1.86891,2.20407 -2.593,5.17405 -4.31085,7.49776 -1.71785,2.32371 -5.36393,3.80111 -7.42549,1.77609 a 10.23468,10.23468 0 0 0 -2.78041,-12.44508 27.30929,27.30929 0 0 0 -6.14119,-2.98712 36.42167,36.42167 0 0 1 -6.86076,-3.82371 6.75781,6.75781 0 0 1 -2.51864,-2.69494 6.14136,6.14136 0 0 1 0.17224,-4.26168 17.42557,17.42557 0 0 1 13.86714,-11.49368 c 2.74488,-0.37343 5.93955,-0.24185 7.75607,-2.33327 0.96116,-1.10661 1.46548,-2.77969 2.86062,-3.22913 a 4.21943,4.21943 0 0 1 2.64107,0.32524 l 10.24533,3.60618 a 7.19076,7.19076 0 0 0 3.64975,0.60364 2.47448,2.47448 0 0 0 2.13965,-2.60046 c -0.32735,-1.70141 -2.94535,-2.51787 -2.70713,-4.234 a 2.82667,2.82667 0 0 1 0.85747,-1.44135 36.6289,36.6289 0 0 1 29.0513,-11.47224 c 1.29313,2.1238 -0.752,4.63875 -2.45369,6.45178 -1.70169,1.81303 -3.06918,5.05247 -1.01125,6.44805 a 5.64254,5.64254 0 0 0 2.72791,0.61435 23.81858,23.81858 0 0 1 7.2608,2.20231 q 5.31051,2.31106 10.41719,5.05725 c -0.30072,-2.24471 -0.58773,-4.60949 0.26309,-6.70836 0.85082,-2.09887 3.26893,-3.74515 5.38105,-2.92776 2.03552,0.78775 3.07945,3.483 5.24807,3.72993 2.89281,0.32939 4.03409,-3.94424 2.82574,-6.59315 -1.20835,-2.64891 -3.60044,-4.86693 -3.80011,-7.77157 -0.13471,-1.95958 0.611,-4.38989 -0.95429,-5.57648 a 4.26049,4.26049 0 0 0 -1.84682,-0.64758 l -39.08387,-7.19215 c -2.32088,-0.42709 -5.67415,-0.0998 -5.77707,2.25786 -0.0575,1.316 1.11807,2.61792 0.59742,3.82788 -0.55569,1.2914 -2.3812,1.17333 -3.71082,1.63009 -2.06306,0.70871 -3.0983,3.15844 -2.90016,5.33082 a 14.83392,14.83392 0 0 0 2.448,6.00751 c -2.54218,-1.06317 -6.39147,-1.2586 -8.93365,-2.32176 z"
         fill="#3f3d56"
         id="path136"
         style="fill:#3d564a;fill-opacity:1" /><path
         d="m 901.19925,167.52227 a 12.65625,12.65625 0 0 0 -13.90248,4.16352 c -0.64354,0.84733 -1.184,2.0154 -0.64526,2.93291 0.77242,1.31538 2.74054,0.79583 4.19156,0.3253 a 10.54923,10.54923 0 0 1 6.62071,-0.15794 c 1.36251,0.4678 2.58147,1.29457 3.94993,1.74469 a 3.97776,3.97776 0 0 0 4.0557,-0.59267 c 0.93918,-0.95786 0.99811,-2.447 0.99977,-3.7885 a 3.04683,3.04683 0 0 0 -0.7764,-2.50416 3.98083,3.98083 0 0 0 -1.79553,-0.53108 6.18453,6.18453 0 0 1 -3.61949,-2.11485"
         fill="#3f3d56"
         id="path138"
         style="fill:#3d564a;fill-opacity:1" /><path
         d="m 915.29207,163.59847 a 3.21956,3.21956 0 0 0 -3.11178,4.53438 13.04966,13.04966 0 0 0 5.203,0.33925 4.44715,4.44715 0 0 0 3.63666,-3.33425 8.37214,8.37214 0 0 1 -5.92789,-1.13214"
         fill="#3f3d56"
         id="path140"
         style="fill:#3d564a;fill-opacity:1" /><path
         d="m 962.5752,157.04537 a 59.85328,59.85328 0 0 0 -13.342,4.5323 10.02439,10.02439 0 0 1 6.40246,10.06844 5.24308,5.24308 0 0 0 0.0607,2.48936 c 0.49,1.18793 1.90992,1.63367 3.15823,1.93858 a 20.82257,20.82257 0 0 0 6.927,0.88415 7.05639,7.05639 0 0 0 5.73376,-3.50382 24.97233,24.97233 0 0 1 1.19237,-2.81861 c 2.99219,-4.55705 11.8812,0.9531 15.09379,-3.45134 1.13168,-1.55153 1.02817,-3.887 2.50344,-5.11644 a 5.62408,5.62408 0 0 1 2.57353,-0.98213 180.73105,180.73105 0 0 1 19.54842,-2.78411 c 3.1092,-0.27057 7.1619,-1.387 7.1877,-4.50784 a 54.14874,54.14874 0 0 0 -34.54118,4.64674 c -3.85042,1.92855 -8.943,5.98531 -12.65192,3.42852 -1.3887,-0.95731 -1.31994,-3.5351 -3.23126,-4.61157 -1.9541,-1.10056 -4.54077,-0.65294 -6.61509,-0.21223 z"
         fill="#3f3d56"
         id="path142"
         style="fill:#3d564a;fill-opacity:1" /><path
         d="m 1000.8743,164.20741 5.4974,1.05632 a 7.12377,7.12377 0 0 0 -7.41335,7.7201 c 5.14815,1.7198 10.76075,0.0462 16.18365,0.27485 5.423,0.22861 11.7326,4.10232 10.8069,9.45057 -0.2799,1.61713 -1.2141,3.23318 -0.7283,4.8008 0.3405,1.09875 1.3095,1.87838 1.8565,2.89032 1.1397,2.10869 0.2288,4.77587 -1.2104,6.69274 -1.4391,1.91687 -3.3736,3.44632 -4.6368,5.48342 -3.1419,5.06657 -1.3568,11.61664 0.5148,17.27691 a 15.23135,15.23135 0 0 0 2.9287,5.84883 c 2.7729,2.94822 7.2916,3.20463 11.3385,3.26369 2.9455,0.043 6.3196,-0.10253 8.1823,-2.38464 2.4318,-2.97941 0.7313,-7.62792 2.3324,-11.12466 1.4541,-3.17575 5.1587,-4.53818 8.5152,-5.50446 6.1491,-1.77024 12.4157,-3.27523 18.229,-5.94915 7.2187,-3.32032 13.9651,-8.49468 21.8992,-8.92208 2.226,-0.1199 4.507,0.1428 6.6512,-0.46707 2.1441,-0.60987 4.1808,-2.46362 4.0185,-4.68685 -0.1387,-1.89959 -1.7458,-3.29449 -3.0016,-4.72649 -1.2558,-1.432 -2.242,-3.634 -1.0879,-5.14908 l 20.7966,-3.88442 c -1.4742,-4.01745 -2.6226,-9.30851 0.7649,-11.92352 1.2222,-0.94351 2.8586,-1.32062 3.8993,-2.46127 1.7736,-1.9441 0.8817,-5.293 -1.1657,-6.94635 -2.0474,-1.65335 -4.8157,-2.03716 -7.4382,-2.255 -9.1188,-0.75732 -18.29,-0.25689 -27.4265,0.24392 q -26.7898,1.46846 -53.5796,2.93691 c -3.5953,0.19707 -7.7464,-0.104 -11.0439,1.12259 -2.7915,1.03843 -4.7764,2.94458 -7.9691,3.61429 -5.894,1.23636 -12.3802,0.39973 -17.7137,3.70878 z"
         fill="#3f3d56"
         id="path144"
         style="fill:#3d564a;fill-opacity:1" /><path
         d="m 1099.3588,207.66067 a 2.21206,2.21206 0 0 0 -1.6001,0.36291 2.02023,2.02023 0 0 0 -0.5209,1.23389 8.1485,8.1485 0 0 0 1.1836,5.83234 5.71115,5.71115 0 0 0 5.228,2.50649 c 2.4753,-0.31565 4.2996,-2.42746 6.5753,-3.45795 3.5074,-1.58681 18.4028,-4.06052 8.099,-9.62727 -3.551,-1.91843 -5.8455,-0.22491 -8.6442,1.03851 a 19.66887,19.66887 0 0 1 -10.3207,2.11108 z"
         fill="#3f3d56"
         id="path146"
         style="fill:#3d564a;fill-opacity:1" /><path
         d="m 1189.6087,161.06481 a 5.88312,5.88312 0 0 0 -2.8625,2.49162 2.514,2.514 0 0 0 0.9429,3.335 3.75215,3.75215 0 0 0 1.4035,0.22264 l 4.8922,0.14615 c 2.0782,0.0621 4.6743,0.50471 5.2327,2.50751 0.4147,1.48714 -0.5134,3.39813 0.6065,4.46087 a 3.1547,3.1547 0 0 0 1.6642,0.64909 11.34113,11.34113 0 0 0 4.9292,0.15908 c 3.5596,-0.95476 1.6892,-3.12726 2.8103,-5.06171 1.7153,-2.95984 1.4184,-1.16811 4.4409,-2.86446 2.2321,-1.25277 5.1164,-3.52532 3.2534,-6.71829 -3.2398,-5.5525 -22.5326,-1.71284 -27.3133,0.6725 z"
         fill="#3f3d56"
         id="path148"
         style="fill:#3d564a;fill-opacity:1" /><path
         d="m 1286.1675,158.27328 -2.8407,0.37908 c -6.4059,0.85484 -12.8481,1.71755 -19.0179,3.64123 a 31.65235,31.65235 0 0 0 8.3288,2.04373 25.58457,25.58457 0 0 1 4.6655,0.66319 c 2.7251,0.81124 5.471,2.90612 8.1037,1.833 1.6324,-0.66538 2.1651,-2.36506 3.5173,-3.26585 0.9338,-0.622 4.4753,-1.62874 4.8712,-2.25654 3.2005,-5.07536 -5.1676,-3.36614 -7.6279,-3.03784 z"
         fill="#3f3d56"
         id="path150"
         style="fill:#3d564a;fill-opacity:1" /><path
         d="m 1298.6416,171.18428 a 53.27668,53.27668 0 0 0 -10.4833,7.67719 c -1.3347,1.25468 -2.698,2.81516 -2.5769,4.643 0.1608,2.42938 2.7487,3.83854 4.9908,4.78778 l 9.0812,3.84485 c 1.1017,-1.55276 0.093,-3.69619 -1.0452,-5.2221 -1.1386,-1.52591 -2.4916,-3.29135 -1.9886,-5.12757 0.5741,-2.09545 3.129,-2.80951 5.2715,-3.1705 3.4907,-0.58817 12.9074,-0.541 11.7759,-6.16669 -1.3332,-6.62877 -11.5213,-3.22459 -15.0254,-1.26596 z"
         fill="#3f3d56"
         id="path152"
         style="fill:#3d564a;fill-opacity:1" /><path
         d="m 1296.8154,546.31147 c -0.8645,2.50287 -0.9465,5.45128 0.5489,7.63652 1.6781,2.45208 5.0364,3.36612 7.9419,2.74429 a 14.307,14.307 0 0 0 7.3736,-4.74082 25.39213,25.39213 0 0 0 4.2412,-6.50393 50.76722,50.76722 0 0 0 3.1435,-11.50232 l 2.8196,-14.804 c 0.6301,-3.3086 0.6057,-13.45221 -5.4754,-10.14731 -1.6612,0.90284 -5.5076,8.03123 -7.2486,10.05264 -3.1378,3.64323 -3.5529,7.17824 -5.2047,11.59189 -2.0691,5.52837 -6.2274,10.13584 -8.14,15.67304 z"
         fill="#3f3d56"
         id="path154"
         style="fill:#3d564a;fill-opacity:1" /><path
         d="m 1617.9975,622.06879 a 44.3323,44.3323 0 0 1 -5.7785,-2.75084 48.70737,48.70737 0 0 0 -2.9293,15.96489 l 13.6159,-7.70478 c 2.0483,-1.159 4.3698,-2.76948 4.3257,-5.12252 a 1.62057,1.62057 0 0 0 -0.7527,-1.47353 1.83562,1.83562 0 0 0 -0.9545,-0.112 c -2.019,0.16826 -3.8599,1.16172 -5.7645,1.85256 -1.9046,0.69084 -4.1317,1.056 -5.8792,0.0308"
         fill="#3f3d56"
         id="path156"
         style="fill:#3d564a;fill-opacity:1" /><path
         d="m 1689.8241,626.64302 a 29.472,29.472 0 0 0 -4.3665,1.567 c -3.1246,1.58981 -5.2502,4.60947 -8.062,6.70342 -2.6907,2.00378 -5.9297,3.10394 -9.1095,4.17362 -0.9353,0.82681 -0.5055,2.492 0.5098,3.21833 a 6.31536,6.31536 0 0 0 3.5962,0.80831 c 3.3034,0.0729 6.7837,0.10473 9.6772,-1.49081 a 30.51837,30.51837 0 0 0 4.556,-3.61614 c 3.3831,-2.82274 7.4458,-4.68517 11.4675,-6.485 a 13.162,13.162 0 0 0 3.9969,-2.38972 c 2.5271,-2.48973 2.7048,-6.33069 -0.9391,-7.17807 -2.9443,-0.68475 -8.523,3.78211 -11.3265,4.68906 z"
         fill="#3f3d56"
         id="path158"
         style="fill:#3d564a;fill-opacity:1" /><path
         d="m 1721.5603,605.9126 a 11.35853,11.35853 0 0 0 -3.4753,-9.30664 c -0.037,3.42765 -0.1413,7.07923 -2.0691,9.91362 -1.3736,2.01952 -3.5272,3.38376 -5.0321,5.30744 -1.5049,1.92368 -2.1729,4.97289 -0.4077,6.66088 a 6.61488,6.61488 0 0 0 3.9202,1.35022 c 3.5138,0.41362 7.5809,0.64415 10.0453,-1.89439 1.3452,-1.38557 1.9995,-3.43772 3.6401,-4.4564 a 4.42852,4.42852 0 0 0 1.597,-1.14283 c 0.6774,-1.07684 -0.399,-2.496 -1.6105,-2.884 -1.2116,-0.388 -2.5468,-0.2056 -3.7644,-0.5741 -1.2176,-0.3685 -2.3347,-1.73769 -1.71,-2.84589"
         fill="#3f3d56"
         id="path160"
         style="fill:#3d564a;fill-opacity:1" /><path
         d="m 1665.1553,480.24147 a 15.79465,15.79465 0 0 1 -5.6359,0.3323 c -3.1281,-0.5751 -5.5628,-2.93262 -8.0883,-4.866 a 35.677,35.677 0 0 0 -20.8456,-7.2833 c -6.8625,-0.12959 -13.7891,1.73 -20.5292,0.43257 0.4404,2.44927 2.5363,4.28628 4.7725,5.37816 2.2362,1.09188 4.7042,1.64135 6.9512,2.711 a 16.59674,16.59674 0 0 1 8.0392,8.36349 c 0.7237,1.68923 1.179,3.52752 2.2752,5.0025 2.2406,3.01482 6.4876,3.67683 10.2357,3.43028 4.8868,-0.32145 9.9906,-1.7269 14.5369,0.0937 3.4779,1.39278 5.9671,4.43682 8.871,6.80376 2.9039,2.36694 6.9941,4.12365 10.3286,2.41582 a 17.07456,17.07456 0 0 1 -11.8144,-16.42993 c 3.2705,0.30074 12.6902,0.18435 12.1829,-5.37265 -0.43,-4.70948 -8.4715,-1.52005 -11.2798,-1.01174 z"
         fill="#3f3d56"
         id="path162"
         style="fill:#3d564a;fill-opacity:1" /><path
         d="m 1622.3721,518.55859 c 0.5807,-3.18486 3.7568,-5.99733 2.7674,-9.07981 -0.6842,-2.13171 -3.1558,-3.18416 -5.394,-3.23672 -2.2382,-0.0526 -4.437,0.61415 -6.675,0.67693 a 32.52991,32.52991 0 0 0 -4.3708,0.0621 c -4.4424,0.73025 -7.1807,5.3866 -11.3673,7.04224 -2.5456,1.00671 -5.4055,0.81426 -8.053,1.51021 -6.0099,1.57979 -9.8126,7.25885 -14.0137,11.83761 a 50.01052,50.01052 0 0 1 -25.3841,14.80352 c -3.4171,0.79123 -7.0904,1.29744 -9.8066,3.51674 -3.5968,2.93889 -4.4822,7.97714 -5.2824,12.55248 a 207.33279,207.33279 0 0 1 -10.093,37.05085 l 14.2704,1.822 c 2.7132,0.34641 5.5245,0.68539 8.1389,-0.11824 a 23.62759,23.62759 0 0 0 5.3533,-2.85151 53.44248,53.44248 0 0 1 20.8794,-7.53674 c 3.737,-0.51305 7.655,-0.60706 11.162,0.782 3.5069,1.38906 6.5155,4.53912 6.8094,8.29966 a 8.76685,8.76685 0 0 1 8.7621,2.131 15.23057,15.23057 0 0 1 4.1833,8.35106 c 0.3759,1.95234 0.752,4.29163 2.5637,5.11066 1.478,0.6682 3.1734,-0.0515 4.7903,-0.18086 5.4865,-0.439 10.0392,5.95835 15.4319,4.85672 5.7835,-1.18148 7.2034,-9.84311 12.8456,-11.57814 3.2406,-0.99649 7.786,0.21524 9.3378,-2.79908 1.3677,-2.65685 -1.3611,-5.72282 -1.0797,-8.69778 0.3465,-3.66316 4.6674,-5.218 7.9985,-6.781 11.484,-5.38855 16.9335,-20.845 11.3687,-32.24457 -3.2972,-6.75422 -9.7848,-12.071 -10.9829,-19.49093 -0.9218,-5.70876 1.3286,-12.36578 -2.3112,-16.85931 -1.8516,-2.28588 -4.9865,-3.54764 -6.0883,-6.2752 -0.6935,-1.7169 -0.4148,-3.66488 -0.788,-5.47855 -0.3732,-1.81367 -1.9555,-3.7108 -3.7465,-3.2407 -5.1989,1.3646 -6.8579,17.42481 -9.6413,21.327 -4.2312,5.93159 -12.9173,2.02442 -11.5849,-5.28362 z"
         fill="#3f3d56"
         id="path164"
         style="fill:#3d564a;fill-opacity:1" /><path
         d="m 1526.2778,486.30957 c -1.7766,-0.49816 -3.7166,-0.9889 -5.4189,-0.277 -1.7023,0.7119 -2.6964,3.21122 -1.3302,4.45137 10.6885,-0.41637 21.4424,-0.82984 32.04,0.62169 12.2102,1.67239 24.2941,5.815 36.5579,4.59626 a 186.05361,186.05361 0 0 0 -21.3261,-4.94866 l -12.0059,-2.29346 a 92.83038,92.83038 0 0 0 -9.7492,-1.50643 c -6.8493,-0.56567 -12.0333,1.2445 -18.7676,-0.64377 z"
         fill="#3f3d56"
         id="path166"
         style="fill:#3d564a;fill-opacity:1" /><path
         d="m 1536.9782,449.08365 c -0.8874,-0.0741 -1.9863,-0.13792 -2.4454,0.625 -0.4386,0.72893 0.063,1.692 -0.1724,2.5094 -0.3222,1.11667 -1.7846,1.40194 -2.9369,1.24991 -1.1522,-0.15203 -2.3984,-0.51613 -3.4192,0.0394 a 2.89808,2.89808 0 0 0 -1.1205,3.29188 8.47457,8.47457 0 0 0 1.9763,3.15037 32.1849,32.1849 0 0 0 5.1277,5.14334 c 3.6736,2.71163 8.6504,4.01837 10.9641,7.95468 a 5.278,5.278 0 0 0 1.4644,1.97083 c 1.1107,0.70357 2.5593,0.16832 3.7552,-0.37811 l 4.192,-1.91541 a 4.76165,4.76165 0 0 0 1.9596,-1.33278 c 0.9578,-1.29948 0.3695,-3.1471 -0.4343,-4.547 -0.8039,-1.3999 -1.8329,-2.84867 -1.6604,-4.45369 0.3076,-2.86171 3.9871,-3.95634 5.5,-6.40481 1.525,-2.468 0.5323,-5.64793 0.708,-8.544 0.2057,-3.38674 2.3338,-7.7921 -1.0901,-10.32252 -2.9099,-2.15054 -5.6912,-0.16345 -7.7803,2.21079 -4.4057,5.00677 -6.4889,10.429 -14.5878,9.75268 z"
         fill="#3f3d56"
         id="path168"
         style="fill:#3d564a;fill-opacity:1" /><path
         d="m 1562.4237,398.4807 c 1.4312,2.74025 4.4148,4.37553 5.9754,7.04417 1.6916,2.89256 1.4989,6.62987 3.334,9.43356 1.8828,2.87652 5.6718,4.4037 6.7277,7.67544 1.1528,3.57193 -1.4628,7.91337 0.6221,11.03437 a 4.63194,4.63194 0 0 0 6.7945,0.62426 4.98391,4.98391 0 0 0 -0.2057,-6.95361 c -1.2344,-1.12551 -3.007,-1.61188 -4.0377,-2.92653 a 6.141,6.141 0 0 1 -1.0457,-2.54625 16.66947,16.66947 0 0 1 0.2622,-7.98917 3.55525,3.55525 0 0 0 0.2009,-2.08971 c -0.464,-1.34873 -2.2902,-1.44442 -3.572,-2.07011 -2.9111,-1.42106 -2.8405,-5.52953 -2.3319,-8.7289 -0.3386,2.13 -7.9258,-1.49274 -8.7203,-2.69926 -1.5784,-2.39681 -0.7194,-7.02026 -1.0318,-9.66886 -3.4074,1.64194 -4.7215,6.51016 -2.9717,9.8606 z"
         fill="#3f3d56"
         id="path170"
         style="fill:#3d564a;fill-opacity:1" /><path
         d="m 1485.9869,440.64253 c -1.4004,-1.56769 -3.5097,-3.20771 -5.3871,-2.26225 -1.4324,0.72131 -1.8264,2.70317 -1.265,4.20545 a 9.25683,9.25683 0 0 0 3.0549,3.642 c 3.9125,3.22681 8.1257,6.13914 11.539,9.89012 6.1083,6.71269 9.3441,15.77036 15.9872,21.95431 a 8.9669,8.9669 0 0 0 5.034,2.7244 c 1.9354,0.18005 4.1088,-1.05881 4.3313,-2.9898 0.1832,-1.59064 -0.9256,-3.01436 -2.0093,-4.19309 -2.5805,-2.80691 -5.4056,-5.39057 -7.8419,-8.32349 a 6.99405,6.99405 0 0 1 -2.0045,-4.18629 c -0.012,-1.5792 1.4277,-3.23208 2.9578,-2.841 -1.8609,-0.47563 -3.2409,-3.57576 -5.972,-4.15852 -2.2825,-0.487 -2.8346,0.926 -5.551,-0.239 -5.1807,-2.22199 -9.2453,-9.16133 -12.8734,-13.22284 z"
         fill="#3f3d56"
         id="path172"
         style="fill:#3d564a;fill-opacity:1" /><path
         d="m 1607.719,287.996 a 42.89929,42.89929 0 0 1 -4.3768,-1.56347 c -3.8466,-1.15464 -8.9361,1.67272 -8.4233,5.656 0.3406,2.64657 2.8037,4.4309 4.164,6.72656 2.0172,3.40439 1.4794,7.72236 0.4194,11.5349 a 9.01737,9.01737 0 0 1 -1.4554,3.28195 11.11578,11.11578 0 0 1 -3.4469,2.47953 46.10307,46.10307 0 0 0 -13.4899,11.4604 3.3029,3.3029 0 0 0 -0.8147,1.53568 c -0.1834,1.34489 1.1684,2.32458 1.9327,3.44628 1.6978,2.49171 0.4707,5.8446 0.6385,8.85506 a 2.5036,2.5036 0 0 0 1.0549,2.19658 c 1.0233,0.5198 2.2359,-0.36314 2.7905,-1.368 1.8407,-3.33468 0.4541,-8.6874 3.907,-10.29523 0.6532,-0.30414 1.445,-0.43236 1.8808,-1.00613 0.6913,-0.91021 0.024,-2.25793 0.3747,-3.34588 0.526,-1.63348 2.7601,-1.70681 4.4746,-1.63436 a 25.39755,25.39755 0 0 0 8.7242,-1.16146 5.80725,5.80725 0 0 0 2.888,-1.67236 c 1.0322,-1.2882 0.9407,-3.11986 0.7345,-4.75764 a 64.49225,64.49225 0 0 0 -7.6195,-23.24965 c 3.0331,0.38746 6.333,0.723 8.9504,-0.85772 1.4656,-0.88515 3.2232,-3.53215 2.4963,-5.33381 -1.1496,-2.84911 -3.2262,-0.45095 -5.804,-0.92723 z"
         fill="#3f3d56"
         id="path174"
         style="fill:#3d564a;fill-opacity:1" /><path
         d="m 1218.87,332.90254 c 0.363,1.94681 0.7198,3.99671 0.082,5.87148 -0.638,1.87477 -2.645,3.44124 -4.5403,2.8668 -1.4708,-0.44581 -2.3204,-1.92472 -3.3648,-3.05224 -5.8082,-6.27028 -18.9122,-2.64 -22.5003,-10.39738 -1.4643,-3.166 -0.4692,-6.959 -1.468,-10.30111 a 9.16886,9.16886 0 0 0 -9.2852,-6.30783 19.07985,19.07985 0 0 0 -5.3433,1.595 134.72654,134.72654 0 0 1 -35.4012,8.8543 29.08667,29.08667 0 0 0 -6.8021,1.23767 c -4.9878,1.80826 -8.3959,6.4324 -10.8212,11.15106 -2.4253,4.71866 -4.2158,9.82711 -7.4675,14.01934 -3.4174,4.4059 -8.2061,7.49115 -12.6731,10.82829 a 12.93011,12.93011 0 0 0 -4.1806,4.38171 c -0.9685,1.98814 -0.9138,4.30065 -0.8387,6.51083 l 0.913,26.84369 c 0.1174,3.45276 0.2649,7.02894 1.8102,10.11882 1.9297,3.85843 5.7418,6.38553 8.3864,9.794 a 19.18331,19.18331 0 0 1 3.9797,12.25056 c -0.056,1.77706 -0.2328,3.87893 1.1512,4.995 a 5.06175,5.06175 0 0 0 2.8303,0.814 l 36.3117,2.97192 c 6.3874,0.52278 13.4663,1.38234 17.6365,6.24877 1.9682,2.29673 3.5493,5.59956 6.5639,5.846 1.2931,0.10569 2.5513,-0.42512 3.8446,-0.52755 3.2631,-0.25843 6.1296,2.21818 7.9387,4.94608 a 21.94345,21.94345 0 0 1 3.5245,14.08047 c -0.2966,3.11179 -1.2614,6.137 -1.4694,9.256 -0.7915,11.86777 9.2692,22.17857 9.4642,34.07111 0.1147,6.99531 -3.2061,13.5313 -6.4437,19.73336 5.2253,7.91591 0.9466,18.4569 3.0269,27.711 1.9736,8.77961 9.294,15.65282 11.1181,24.46471 0.835,4.03407 0.8834,8.99841 4.4406,11.07616 a 10.12238,10.12238 0 0 0 5.0248,1.00609 66.24189,66.24189 0 0 0 30.165,-6.86742 c 4.3986,-2.18276 8.9572,-5.44128 9.7254,-10.29125 0.6195,-3.91119 -1.3639,-8.28605 0.6546,-11.6929 2.379,-4.01531 8.4735,-3.697 11.9738,-6.78414 5.6786,-5.00824 1.2505,-14.55968 3.5513,-21.77323 2.0682,-6.4841 9.1874,-9.92886 12.7163,-15.74842 a 27.98563,27.98563 0 0 0 2.955,-8.00882 114.2435,114.2435 0 0 0 3.0066,-20.42635 122.43639,122.43639 0 0 1 0.9242,-12.51145 c 3.8047,-23.63775 27.1732,-39.466 34.7603,-62.174 0.7245,-2.16863 1.0648,-5.05722 -0.8645,-6.28433 a 5.52524,5.52524 0 0 0 -3.6742,-0.38455 l -16.7388,2.11033 c -2.0791,0.26212 -4.2829,0.50711 -6.1923,-0.35645 -1.9093,-0.86356 -3.2777,-3.279 -2.265,-5.11353 2.843,-5.14971 -3.0051,-11.65727 -5.6033,-16.93475 a 249.89411,249.89411 0 0 0 -24.8846,-40.35668 4.10206,4.10206 0 0 1 -1.091,-2.36876 l 4.7507,0.15818 c -1.6036,-5.75439 -4.2501,-12.05139 -9.8406,-14.15637 -3.1502,-1.18615 -6.6389,-0.776 -10,-0.59234 -9.6272,0.52593 -19.9482,-0.92759 -29.4766,-2.40088 z"
         fill="#3f3d56"
         id="path176"
         style="fill:#3d564a;fill-opacity:1" /><path
         d="m 1248.3544,203.22679 c 2.5192,2.67527 5.3422,5.51171 8.9872,5.978 6.438,0.82367 11.0669,-5.83384 14.014,-11.6166 a 5.67618,5.67618 0 0 0 5.9231,5.25121 11.69277,11.69277 0 0 0 4.455,-1.74172 87.76547,87.76547 0 0 1 41.579,-10.74849 4.49028,4.49028 0 0 1 3.429,-4.93638 c 2.9554,-0.58592 5.6176,1.96926 7.0433,4.62354 1.4257,2.65428 2.3146,5.73081 4.5797,7.71757 2.2651,1.98676 6.6505,1.90021 7.5452,-0.97683 0.8589,-2.76209 -2.0186,-5.11757 -4.4092,-6.746 -2.3906,-1.62843 -4.9104,-4.64241 -3.3005,-7.04556 12.2133,-2.70351 24.5023,-5.41726 36.9998,-5.95462 a 15.49384,15.49384 0 0 0 6.2281,-1.0729 c 1.9059,-0.93527 3.4207,-3.0583 2.9082,-5.11851 a 14.10379,14.10379 0 0 1 -14.7182,-5.55156 c 17.341,-1.431 35.785,-2.65073 51.1532,5.50893 1.8441,3.959 -7.555,7.25286 -5.0402,10.82367 0.802,1.13886 2.4092,1.27242 3.8019,1.29827 10.6794,0.19828 21.4206,0.39271 31.9795,-1.21963 3.8587,-0.58921 7.7562,-1.421 11.6302,-0.94319 6.4528,0.79581 11.9718,5.10126 18.32,6.505 2.5838,0.57135 5.481,0.5907 7.659,-0.91213 2.1781,-1.50283 3.1143,-4.92479 1.3295,-6.87844 5.9771,-5.85812 15.8973,-4.40622 23.7826,-1.60164 7.8853,2.80458 15.3555,7.32743 23.7013,7.95258 5.9848,0.44829 12.0526,-1.16151 17.9663,-0.1383 3.7161,0.643 7.1747,2.29621 10.8067,3.3119 6.8693,1.921 14.1359,1.51549 21.2681,1.60794 a 149.0218,149.0218 0 0 1 53.1061,10.55252 15.78927,15.78927 0 0 1 5.9037,3.488 c 1.5733,1.68485 2.3757,4.303 1.3182,6.35142 l -17.4727,-2.553 c 1.6463,3.24081 5.9053,3.79308 9.364,4.91109 3.4588,1.11801 7.0449,4.93759 4.9663,7.9196 -3.7475,-1.19324 -7.1436,2.55357 -9.0366,6.00094 -1.8931,3.44737 -4.2001,7.576 -8.1274,7.786 -3.5168,0.18806 -7.77,-2.80646 -10.0624,-0.13277 a 68.62854,68.62854 0 0 1 8.0855,12.92662 c 2.2647,4.71812 3.8778,10.66311 0.8168,14.90809 a 3.864,3.864 0 0 1 -2.0658,1.602 c -2.4999,0.63286 -4.1242,-2.42539 -5.917,-4.279 -2.2592,-2.33583 -5.6757,-2.99743 -8.735,-4.0929 -3.0594,-1.09547 -6.2821,-3.25045 -6.5215,-6.49119 -0.1489,-2.01631 0.9156,-3.89065 1.6998,-5.75419 a 22.16956,22.16956 0 0 0 1.6844,-9.94358 c -0.1716,-2.73525 -0.9386,-5.58051 -2.903,-7.49163 -1.9644,-1.91112 -5.3559,-2.51739 -7.4647,-0.767 -0.984,0.81673 -1.7726,2.12315 -3.0504,2.172 -2.2579,0.0864 -3.9914,-3.85 -5.8079,-2.50629 a 6.17209,6.17209 0 0 1 -0.8387,4.12789 c -5.4207,4.71438 -13.748,2.71993 -20.7363,4.3853 a 38.92136,38.92136 0 0 0 -9.4606,4.13158 6.08717,6.08717 0 0 0 -2.7042,2.26983 c -0.8723,1.69516 0.089,3.86621 1.627,4.99333 a 12.91668,12.91668 0 0 0 5.3646,1.83107 c 8.5195,1.61352 17.1633,4.11131 23.8894,9.58345 6.7262,5.47214 11.137,14.5179 9.0086,22.92356 l -16.8009,-16.05362 q 0.9572,10.11085 1.0864,20.2774 a 9.11644,9.11644 0 0 1 -0.5326,3.9003 c -1.1977,2.64545 -4.4439,3.53567 -7.2885,4.11966 a 5.70921,5.70921 0 0 0 -4.3828,7.31476 c 1.0107,3.29431 3.5307,5.86271 5.8381,8.42193 2.3075,2.55922 4.5782,5.46788 4.8803,8.90047 0.302,3.43259 -2.2877,7.30166 -5.7253,7.063 -2.6059,-0.18094 -4.5393,-2.51378 -5.6508,-4.87771 -1.1115,-2.36393 -1.7729,-4.99729 -3.443,-7.00589 -5.0549,-6.07956 -16.409,-3.47482 -20.9374,-9.95611 a 10.24126,10.24126 0 0 0 -2.1178,9.746 c 2.1067,-1.31884 4.9907,-0.0935 6.5736,1.82283 1.5828,1.9163 2.3295,4.37313 3.5725,6.52544 1.6774,2.9043 4.3468,5.479 4.5809,8.82472 a 28.84532,28.84532 0 0 0 0.064,3.7953 c 0.4159,2.0272 2.1294,3.4828 3.3174,5.17725 2.7643,3.94272 2.6277,9.35907 0.846,13.83256 -1.7817,4.47349 -4.9827,8.21152 -8.1533,11.83563 -5.5377,6.33 -11.1885,12.62289 -17.7537,17.87962 -1.8733,1.5 -3.8726,2.97492 -5.0393,5.072 -1.1667,2.09708 -1.2266,5.04064 0.5663,6.63586 -1.2828,0.0643 -3.5835,0.69522 -4.8664,0.75947 a 113.14129,113.14129 0 0 1 -0.2934,-15.47719 c -5.0626,-2.43088 -10.5136,4.07913 -9.8603,9.657 0.6533,5.57787 4.6877,10.054 7.56,14.87984 2.1005,3.529 3.6615,7.64391 2.9603,11.69042 -0.7013,4.04651 -4.3134,7.77945 -8.4047,7.42256 -6.5076,-0.56766 -9.2297,-9.91006 -15.674,-10.97926 a 2.63321,2.63321 0 0 0 -1.696,0.16838 c -0.9566,0.525 -1.1228,1.805 -1.1766,2.89487 -0.2636,5.34915 -0.4919,10.91093 1.5962,15.84273 3.0548,7.21493 10.9465,13.27462 9.291,20.93272 -8.9178,-4.14536 -13.5544,-14.14614 -15.6596,-23.7524 -2.1052,-9.60626 -2.4561,-19.691 -6.2298,-28.77234 -2.8655,3.67278 -8.8884,0.6366 -11.5066,-3.21642 -2.4821,-3.65287 -4.0103,-7.87845 -6.4185,-11.5805 -2.4082,-3.70205 -6.0973,-7.017 -10.509,-7.22056 -4.6255,-0.21346 -8.637,2.96071 -12.1648,5.95986 -2.901,2.4662 -5.8793,5.02945 -7.575,8.43857 -2.4676,4.96088 -1.8221,10.80922 -1.941,16.34863 -0.1286,5.98861 -1.3978,12.30709 -5.4794,16.69121 -4.0816,4.38412 -11.6153,5.91115 -16.1173,1.95995 -2.3503,-2.06281 -3.4883,-5.14477 -4.502,-8.1031 a 396.68427,396.68427 0 0 1 -12.188,-43.51101 c -0.7565,3.36049 -3.7073,7.69183 -6.5263,5.71231 a 5.8442,5.8442 0 0 1 -1.5035,-1.93722 c -5.2583,-8.91217 -14.9962,-14.2578 -24.835,-17.463 -9.8389,-3.2052 -20.1906,-4.70029 -29.9204,-8.22288 a 75.78674,75.78674 0 0 1 -15.5211,-7.7314 12.20707,12.20707 0 0 0 -0.746,12.48676 c 2.1582,3.82156 7.0422,6.03267 11.223,4.69689 2.1604,-0.69029 3.9849,-2.19009 6.1286,-2.93084 2.1437,-0.74075 5.0209,-0.377 5.9583,1.68832 0.8972,1.97685 -0.4589,4.36829 0.2138,6.43236 1.0246,3.14369 5.766,3.38589 7.424,6.24663 1.2335,2.12847 0.2185,4.95491 -1.5428,6.67243 -1.7613,1.71752 -4.1113,2.65952 -6.2613,3.85511 -6.9762,3.87928 -11.9372,10.50151 -18.0339,15.65374 -6.0968,5.15223 -14.6987,8.91387 -21.9647,5.609 1.732,-8.77015 -8.715,-15.20895 -10.6369,-23.93945 -0.6326,-2.87357 -0.3047,-5.92608 -1.2078,-8.72642 -1.3076,-4.05445 -4.9047,-6.84213 -7.8556,-9.91467 a 38.91161,38.91161 0 0 1 -10.6728,-28.3102 c 0.1594,-3.60819 0.8223,-7.27515 3e-4,-10.79208 -0.822,-3.51693 -3.7338,-6.92093 -7.342,-6.76154 -8.2411,0.364 -18.623,0.977 -22.9468,-6.04816 -1.5431,-2.50731 -2.2147,-6.17955 0.016,-8.10051 1.5739,-1.35511 3.8972,-1.22746 5.9641,-1.02413 l 18.5684,1.8266 c 4.3428,0.42722 9.0373,0.77979 12.764,-1.4906 3.7267,-2.27039 5.3416,-8.297 1.8908,-10.96811 -2.5214,-1.95171 -7.0387,-1.84588 -7.7717,-4.949 -0.6104,-2.58441 2.2502,-5.51674 0.7052,-7.67656 -1.1078,-1.54864 -3.5983,-1.119 -5.1075,0.0419 -1.5092,1.16094 -2.6042,2.85872 -4.2932,3.73772 -2.9629,1.542 -6.5032,0.0745 -9.6909,-0.92292 -3.1878,-0.99738 -7.4613,-1.08208 -9.0075,1.87863 -1.7292,3.31119 1.5338,7.65 -0.1823,10.96795 -2.2689,4.38675 -9.9526,1.88949 -13.139,5.66279 -3.6565,4.32983 2.4881,10.78622 1.255,16.31763 a 10.1577,10.1577 0 0 1 -10.0074,-0.56224 9.72033,9.72033 0 0 1 -4.2007,-9.05054 c 0.3053,-2.4883 1.6025,-5.02832 0.7333,-7.37976 -0.7028,-1.90118 -2.6116,-3.033 -4.3857,-4.01338 l -18.0442,-9.97108 c -1.6753,3.10774 0.4426,6.9605 3.0914,9.29471 2.6488,2.33421 5.9665,4.09225 7.7066,7.1642 a 9.40377,9.40377 0 0 1 -3.5386,12.39776 2.1708,2.1708 0 0 1 -1.7886,0.312 2.4953,2.4953 0 0 1 -1.16,-1.55988 c -3.1837,-8.14738 -7.9638,-16.18036 -15.6059,-20.43642 -7.6421,-4.25606 -18.623,-3.381 -23.6344,3.78855 -1.1903,1.70291 -1.9892,3.644 -3.0261,5.44441 -5.509,9.56533 -17.3194,14.09487 -28.3537,13.799 a 5.63043,5.63043 0 0 1 -3.0932,-0.72684 c -1.7833,-1.23165 -1.703,-3.84517 -1.43,-5.99521 l 1.1583,-9.12428 c 0.2326,-1.83222 0.5696,-3.85742 2.0198,-5.00116 2.0442,-1.61224 4.993,-0.5948 7.5962,-0.63229 a 9.62676,9.62676 0 0 0 8.738,-6.74362 10.84933,10.84933 0 0 0 -3.0204,-10.78926 c -1.1932,-1.12066 -2.7947,-2.52837 -2.1645,-4.03911 a 3.33909,3.33909 0 0 1 2.3416,-1.57681 c 4.6761,-1.35792 9.617,-1.71384 14.2152,-3.31608 4.5981,-1.60224 9.0573,-4.88037 10.1462,-9.6263 0.3337,-1.45441 0.4856,-3.21624 1.792,-3.93732 a 5.37372,5.37372 0 0 1 2.071,-0.42313 10.07754,10.07754 0 0 0 8.6443,-10.50577 c 2.2036,-1.53979 5.291,-0.40712 7.4228,1.23062 2.1319,1.63774 4.014,3.80148 6.608,4.50746 4.8342,1.3157 9.5058,-2.96444 14.5158,-2.98428 2.1068,-0.008 4.2878,0.73659 6.2699,0.0223 2.0093,-0.72411 3.2092,-2.7243 4.7514,-4.202 1.5421,-1.4777 4.248,-2.379 5.672,-0.78714 l -1.2126,-8.982 a 17.65786,17.65786 0 0 0 14.3706,-2.5981 l -15.672,-5.29531 a 3.40736,3.40736 0 0 1 -1.4655,-0.78358 c -1.1394,-1.2269 -0.01,-3.1388 0.9188,-4.53347 2.2165,-3.33642 2.5885,-8.83231 -1.0564,-10.49336 -2.4879,-1.13378 -5.3435,0.22716 -7.7315,1.55863 l -11.4386,6.37795 c -0.3635,2.17427 2.2954,3.40652 3.943,4.87108 a 6.61107,6.61107 0 0 1 -4.3112,11.55174 8.23769,8.23769 0 0 1 1.4712,6.984 l -7.6962,0.55351 a 3.33426,3.33426 0 0 1 -2.4962,-0.4872 c -0.8231,-0.73105 -0.7115,-2.01211 -0.9022,-3.09635 -0.4605,-2.61692 -3.0229,-4.45106 -5.6381,-4.92135 -2.6152,-0.47029 -5.2905,0.13252 -7.8801,0.72774 a 4.703,4.703 0 0 1 -3.3873,-0.0782 3.3824,3.3824 0 0 1 -1.3401,-1.69143 c -1.1353,-2.75275 -0.074,-5.98837 1.7493,-8.34246 1.8234,-2.35409 4.3195,-4.075 6.5613,-6.03479 a 38.24257,38.24257 0 0 0 11.3715,-17.63761 c 4.2367,-1.77513 8.623,-4.187 12.8597,-5.96217 a 39.35045,39.35045 0 0 1 21.1512,-4.09809 l 14.3481,0.27406 c 4.248,0.0811 8.6109,0.18511 12.5389,1.8046 3.9281,1.61949 7.3795,5.12222 7.6507,9.36234 a 2.87395,2.87395 0 0 1 -0.92,2.62744 3.38952,3.38952 0 0 1 -1.814,0.40888 c -3.9617,0.13923 -5.6509,1.12637 -9.6126,1.26555 z"
         fill="#3f3d56"
         id="path178"
         style="fill:#3d564a;fill-opacity:1" /><path
         d="m 1133.991,248.19421 a 4.19848,4.19848 0 0 0 1.1448,-4.22261 7.85348,7.85348 0 0 0 -8.1319,1.53554 13.70974,13.70974 0 0 0 -2.1786,2.8801 c -1.8853,3.076 -3.553,6.75021 -2.4603,10.18862 a 2.89439,2.89439 0 0 0 1.3246,1.81177 3.48245,3.48245 0 0 0 1.544,0.24185 51.7614,51.7614 0 0 0 6.2136,-0.38244 c 1.2661,-0.1548 2.7367,-0.51234 3.226,-1.69027 0.6432,-1.5484 -0.9136,-3.30074 -0.4598,-4.91483 a 5.36939,5.36939 0 0 1 1.3258,-1.89868 2.51014,2.51014 0 0 0 0.7819,-2.10731 c -0.1831,-0.75735 -1.3428,-1.187 -1.7602,-0.529"
         fill="#3f3d56"
         id="path180"
         style="fill:#3d564a;fill-opacity:1" /><path
         d="m 1144.7611,234.23087 a 17.38476,17.38476 0 0 0 -5.6306,-0.35359 2.45549,2.45549 0 0 0 -1.1998,0.27266 2.00179,2.00179 0 0 0 -0.7394,1.07069 5.31932,5.31932 0 0 0 3.0969,6.51863 6.65526,6.65526 0 0 1 1.9205,0.77174 c 1.5925,1.23559 0.5773,3.76114 0.8787,5.7541 0.3385,2.23792 2.5048,4.11641 2.1076,6.34467 -0.3129,1.75549 -2.1878,3.14554 -1.886,4.903 0.3162,1.84067 2.6519,2.39377 4.5137,2.54117 a 5.67657,5.67657 0 0 0 3.1979,-0.36651 4.95168,4.95168 0 0 0 2.0176,-2.92189 18.72866,18.72866 0 0 0 0.9435,-7.052 6.687,6.687 0 0 0 -0.7952,-3.11257 17.37836,17.37836 0 0 0 -1.8582,-2.12786 c -3.5671,-4.14921 0.1888,-10.33827 -6.5672,-12.24224 z"
         fill="#3f3d56"
         id="path182"
         style="fill:#3d564a;fill-opacity:1" /><path
         d="m 1613.823,559.26636 c 0,0 -273.2014,-156.82256 -390.8184,-127.10881 0,0 -249.26533,26.82491 -278.1537,85.83971 0,0 -79.23666,-247.61456 -108.125,-255.86838"
         fill="none"
         stroke="#6c63ff"
         stroke-miterlimit="10"
         stroke-width="2"
         opacity="0.8"
         id="path184" /><path
         d="m 944.8509,517.99726 c 45.8087,-122.15651 458.4997,-257.51914 458.4997,-257.51914 -58.6021,14.85687 -180.346,171.67943 -180.346,171.67943 0,0 -257.51917,-187.36169 -386.27872,-170.02867 0,0 567.03742,18.57109 777.09702,297.13748"
         fill="none"
         stroke="#6c63ff"
         stroke-miterlimit="10"
         stroke-width="2"
         opacity="0.8"
         id="path186" /><g
         fill="none"
         fill-rule="evenodd"
         stroke="#000000"
         stroke-linecap="round"
         stroke-linejoin="round"
         stroke-width="1.5"
         id="g3464"
         transform="translate(920.68543,484.00718)"
         style="display:inline"><path
           stroke-linejoin="miter"
           d="M 22.5,11.63 V 6 M 20,8 h 5"
           id="path3456" /><path
           fill="#ffffff"
           stroke-linecap="butt"
           stroke-linejoin="miter"
           d="m 22.5,25 c 0,0 4.5,-7.5 3,-10.5 0,0 -1,-2.5 -3,-2.5 -2,0 -3,2.5 -3,2.5 -1.5,3 3,10.5 3,10.5"
           id="path3458" /><path
           fill="#ffffff"
           d="m 12.5,37 c 5.5,3.5 14.5,3.5 20,0 v -7 c 0,0 9,-4.5 6,-10.5 -4,-6.5 -13.5,-3.5 -16,4 V 27 23.5 C 20,16 10.5,13 6.5,19.5 c -3,6 6,10.5 6,10.5 v 7"
           id="path3460" /><path
           d="m 12.5,30 c 5.5,-3 14.5,-3 20,0 m -20,3.5 c 5.5,-3 14.5,-3 20,0 m -20,3.5 c 5.5,-3 14.5,-3 20,0"
           id="path3462" /></g><g
         style="opacity:1;fill:none;fill-opacity:1;fill-rule:evenodd;stroke:#000000;stroke-width:1.5;stroke-linecap:round;stroke-linejoin:round;stroke-miterlimit:4;stroke-dasharray:none;stroke-opacity:1"
         transform="translate(812.64528,236.6827)"
         id="g3485"><path
           d="m 22,10 c 10.5,1 16.5,8 16,29 H 15 c 0,-9 10,-6.5 8,-21"
           style="fill:#ffffff;stroke:#000000"
           id="path3477" /><path
           d="m 24,18 c 0.38,2.91 -5.55,7.37 -8,9 -3,2 -2.82,4.34 -5,4 -1.042,-0.94 1.41,-3.04 0,-3 -1,0 0.19,1.23 -1,2 -1,0 -4.003,1 -4,-4 0,-2 6,-12 6,-12 0,0 1.89,-1.9 2,-3.5 -0.73,-0.994 -0.5,-2 -0.5,-3 1,-1 3,2.5 3,2.5 h 2 c 0,0 0.78,-1.992 2.5,-3 1,0 1,3 1,3"
           style="fill:#ffffff;stroke:#000000"
           id="path3479" /><path
           d="m 9.5,25.5 a 0.5,0.5 0 1 1 -1,0 0.5,0.5 0 1 1 1,0 z"
           style="fill:#000000;stroke:#000000"
           id="path3481" /><path
           d="m 15,15.5 a 0.5,1.5 0 1 1 -1,0 0.5,1.5 0 1 1 1,0 z"
           transform="matrix(0.866,0.5,-0.5,0.866,9.693,-5.173)"
           style="fill:#000000;stroke:#000000"
           id="path3483" /></g><g
         style="opacity:1;fill:#000000;fill-opacity:1;fill-rule:evenodd;stroke:#000000;stroke-width:1.5;stroke-linecap:round;stroke-linejoin:round;stroke-miterlimit:4;stroke-dasharray:none;stroke-opacity:1"
         transform="translate(1201.1089,404.41214)"
         id="g3520"><path
           d="M 9,39 H 36 V 36 H 9 Z"
           style="stroke-linecap:butt"
           id="path3498" /><path
           d="M 12.5,32 14,29.5 h 17 l 1.5,2.5 z"
           style="stroke-linecap:butt"
           id="path3500" /><path
           d="m 12,36 v -4 h 21 v 4 z"
           style="stroke-linecap:butt"
           id="path3502" /><path
           d="m 14,29.5 v -13 h 17 v 13 z"
           style="stroke-linecap:butt;stroke-linejoin:miter"
           id="path3504" /><path
           d="M 14,16.5 11,14 h 23 l -3,2.5 z"
           style="stroke-linecap:butt"
           id="path3506" /><path
           d="M 11,14 V 9 h 4 v 2 h 5 V 9 h 5 v 2 h 5 V 9 h 4 v 5 z"
           style="stroke-linecap:butt"
           id="path3508" /><path
           d="m 12,35.5 h 21 v 0"
           style="fill:none;stroke:#ffffff;stroke-width:1;stroke-linejoin:miter"
           id="path3510" /><path
           d="M 13,31.5 H 32"
           style="fill:none;stroke:#ffffff;stroke-width:1;stroke-linejoin:miter"
           id="path3512" /><path
           d="M 14,29.5 H 31"
           style="fill:none;stroke:#ffffff;stroke-width:1;stroke-linejoin:miter"
           id="path3514" /><path
           d="M 14,16.5 H 31"
           style="fill:none;stroke:#ffffff;stroke-width:1;stroke-linejoin:miter"
           id="path3516" /><path
           d="M 11,14 H 34"
           style="fill:none;stroke:#ffffff;stroke-width:1;stroke-linejoin:miter"
           id="path3518" /></g><g
         style="display:inline;opacity:1;fill:none;fill-opacity:1;fill-rule:evenodd;stroke:#000000;stroke-width:1.5;stroke-linecap:round;stroke-linejoin:round;stroke-miterlimit:4;stroke-dasharray:none;stroke-opacity:1"
         transform="translate(1386.4737,235.94024)"
         id="g3550"><g
           style="fill:#ffffff;stroke:#000000;stroke-linecap:butt"
           id="g3546"><path
             d="m 9,36 c 3.39,-0.97 10.11,0.43 13.5,-2 3.39,2.43 10.11,1.03 13.5,2 0,0 1.65,0.54 3,2 -0.68,0.97 -1.65,0.99 -3,0.5 -3.39,-0.97 -10.11,0.46 -13.5,-1 C 19.11,38.96 12.39,37.53 9,38.5 7.65,38.99 6.68,38.97 6,38 7.35,36.54 9,36 9,36 Z"
             id="path3540" /><path
             d="m 15,32 c 2.5,2.5 12.5,2.5 15,0 0.5,-1.5 0,-2 0,-2 0,-2.5 -2.5,-4 -2.5,-4 5.5,-1.5 6,-11.5 -5,-15.5 -11,4 -10.5,14 -5,15.5 0,0 -2.5,1.5 -2.5,4 0,0 -0.5,0.5 0,2 z"
             id="path3542" /><path
             d="m 25,8 a 2.5,2.5 0 1 1 -5,0 2.5,2.5 0 1 1 5,0 z"
             id="path3544" /></g><path
           d="m 17.5,26 h 10 M 15,30 H 30 M 22.5,15.5 v 5 M 20,18 h 5"
           style="fill:none;stroke:#000000;stroke-linejoin:miter"
           id="path3548" /></g><path
         d="m 1614.1425,537.53078 c -2.21,0 -4,1.79 -4,4 0,0.89 0.29,1.71 0.78,2.38 -1.95,1.12 -3.28,3.21 -3.28,5.62 0,2.03 0.94,3.84 2.41,5.03 -3,1.06 -7.41,5.55 -7.41,13.47 h 23 c 0,-7.92 -4.41,-12.41 -7.41,-13.47 1.47,-1.19 2.41,-3 2.41,-5.03 0,-2.41 -1.33,-4.5 -3.28,-5.62 0.49,-0.67 0.78,-1.49 0.78,-2.38 0,-2.21 -1.79,-4 -4,-4 z"
         style="opacity:1;fill:#000000;fill-opacity:1;fill-rule:nonzero;stroke:#000000;stroke-width:1.5;stroke-linecap:round;stroke-linejoin:miter;stroke-miterlimit:4;stroke-dasharray:none;stroke-opacity:1"
         id="path3564" /></g></g></svg>
